<?xml version="1.0" encoding="UTF-8"?>
<svg xmlns="http://www.w3.org/2000/svg" version="1.1" viewBox="0 0 1000 1000">
  <defs>
    <style>
      .cls-1 {
        fill: #603813;
      }

      .cls-2 {
        fill: #202020;
      }

      .cls-3 {
        fill: #ffd2e6;
      }
    </style>
  </defs>
  <!-- Generator: Adobe Illustrator 28.6.0, SVG Export Plug-In . SVG Version: 1.2.0 Build 709)  -->
  <g>
    <g id="Layer_1">
      <path class="cls-3" d="M89.21,287.87"/>
      <g>
        <path class="cls-2" d="M-369.98,407.53c0-.09,0-.28,0-.24v.33s0-.09,0-.09Z"/>
        <path class="cls-2" d="M-370.04,406.92c0,.16-.02.44-.01.75,0-.32.01-.19.02-.56,0-.04.01.11.01.23,0-.08.01.07.02-.14-.01-.26-.02-.27-.04-.05,0-.07,0-.16,0-.22Z"/>
        <path class="cls-2" d="M-370.8,406.4v.04s0-.03,0-.04Z"/>
        <path class="cls-2" d="M-371.28,406.22s0-.04,0-.07c0,.02,0,.04,0,.07Z"/>
        <path class="cls-2" d="M-371.36,405.85s0,.02,0,.02c0-.03,0-.05,0-.02Z"/>
        <path class="cls-2" d="M-370.8,406.4v-.1c-.01.11,0,.08,0,.1Z"/>
        <path class="cls-2" d="M-370.14,407.72s0-.05,0-.09c0,.01,0,.03,0,.04,0,.02,0,.03,0,.05Z"/>
        <path class="cls-2" d="M-370.59,406.13h0s0-.08,0-.14v.14Z"/>
        <path class="cls-2" d="M-370.43,406.08s0,.27,0,.39c0-.12,0-.17,0-.19,0-.05,0-.12,0-.2Z"/>
        <path class="cls-2" d="M-370.18,406.58v-.04s0,.02,0,.04Z"/>
        <path class="cls-2" d="M-370.71,406.07s0-.08,0-.1c0,.04,0,.07,0,.1Z"/>
        <path class="cls-2" d="M-375.21,408.18s0-.03,0-.05c0,.03,0,.05,0,.05Z"/>
        <path class="cls-2" d="M-375.4,406.79v-.02c0-.05,0-.11,0-.16v.17Z"/>
        <path class="cls-2" d="M-371.51,405.49s0,0,0,0c0-.03,0-.03,0,0Z"/>
        <path class="cls-2" d="M-372.87,405.7c.02.25-.03.32,0,.6,0-.11.02-.44,0-.6Z"/>
        <path class="cls-2" d="M-370.15,407.68s0,0,0,0c0,0,0,0,0,0Z"/>
        <path class="cls-2" d="M-372.88,406.3h0s0,.03,0,.03c0-.01,0-.02,0-.03Z"/>
        <path class="cls-2" d="M-371.85,405.66s0,.09,0,.12c0-.03,0-.06,0-.12Z"/>
        <path class="cls-2" d="M-371.6,406.06v-.04s0,.03,0,.04Z"/>
        <path class="cls-2" d="M-371.98,406.06s0-.06,0-.02c0,.01,0,.02,0,.03,0-.04,0-.06,0-.01Z"/>
        <path class="cls-2" d="M-372.12,406.06s0,.04,0,.06c0,0,0,0,0-.02v-.04Z"/>
        <path class="cls-2" d="M-374.79,408.05c0-.08,0-.17,0-.25,0,.2-.02.27,0,.25Z"/>
        <path class="cls-2" d="M-370.14,407.56c0,.07,0,.11,0,.12,0,0,0,0,0-.02,0-.04,0-.08,0-.11Z"/>
        <path class="cls-2" d="M-371.99,408.28l-.02-.04s.01.04.02.04Z"/>
        <path class="cls-2" d="M-373.8,408.01v.03s0,0,0-.03Z"/>
        <path class="cls-2" d="M-372.08,408.28c0-.1,0-.16-.01-.19,0,.02,0,.04,0,.07v.12Z"/>
        <path class="cls-2" d="M-374.8,407.79s0,0,0,0c0,0,0,0,0,0Z"/>
        <path class="cls-2" d="M-374.94,408.46s0-.36.01-.57c.02-.1.01.27.02.46.02-.1.03-.44.04-.42,0,.06,0,.08,0,.16.02-.29.05-.01.07-.38,0,.03,0,.06,0,.09,0-.19,0-.37,0-.51,0,0,.02-.23.02,0,0,0,0,.09,0,.17v-.1c.02.35,0,.12,0,.38.02-.11.04-.4.06-.3,0,.34-.03.11-.01.42l-.02-.13c.02.54-.01-.04,0,.54.03.1.03-.17.06-.07,0-.19,0-.28,0-.47.04-.34.03.85.06.4,0-.23.01-.66.03-.43v.38s0-.55.04-.29c0,.15-.02.13-.02.17.02.3.01-.22.03-.22v.34c.03-.05.07-.3.1-.36,0,.1,0,.21,0,.31.04-.17.09.04.13.24l.02-.29s0,.13,0,.19c.02.11,0-.19,0-.3,0-.02.01.17,0,.26.03-.25.08-.54.11-.22v.09c.02.12.02-.6.04-.33v.05c.05.13.1-.14.14.3,0-.42.05.19.05-.4.03.29.02.4.06.59.01.03.02-.37.03-.43v.31s.02-.32.02-.32v.37s.02-.08.02-.08c0-.02-.01-.14,0-.23.02-.14.05.21.05.37l.05-.26c0,.12,0,.17-.02.25.02-.31,0,.32.03.04,0-.07,0-.18,0-.25.01.19.04.19.06.11v.21c.03.05.07-.1.11-.1-.01-.1-.01-.47,0-.5v.33c.01-.2,0-.12,0-.37.01.04,0,.37,0,.48l.02-.11c0,.1,0,.15,0,.27,0-.2.03.33.04-.02v.1s.06-.11.09-.13c0-.28.01-.22.02-.45.02.09.05.31.08.29.02-.14,0-.24.01-.41,0,.26.03.23.01.42.03-.04.04-.05.09-.26,0-.1,0-.15,0-.24,0-.04.02.11.02.23v.03c.05-.38.11.75.15.21v.03s.04-.28.04-.28c.02.04-.01.19,0,.35.04-.43.07.06.1-.22.03.76.1-.05.13.43v-.18c0-.17,0,.1.02.14,0-.14-.01-.16,0-.26.08-.21.17.26.25.42.03.05.02-.92.05-.5v.33c.05-.4.11.01.17-.32,0,.08,0,.18,0,.17.01.24.05.01.05-.18,0,.02,0,.18,0,.28.01.14.03-.31.04-.07,0,.04,0,.08,0,.1,0-.12.04.03.03-.25.02.13.04-.12.06.04.01-.31.04.15.04-.29,0,.45.04.36.05.15,0,.14.01.14,0,.33.02,0,.03-.09.03-.32.03.54.06-.44.08.26.05-.24.09-.41.13-.51,0,.45-.05.04-.05.52.04-.19.06-.57.1-.46.01.06,0,.2,0,.27.04-.19.08.04.11-.2,0,.04,0,.09,0,.12,0-.01.02.07.02-.14v.06c-.02-.3.02-.62.02-.78-.01.59.04.15.02.89,0-.04.01-.14,0-.27,0,.04,0,.12,0,.28.03-.11.02-.33.04-.33,0,.1,0,.14,0,.25.01-.19.02-.39.04-.3,0,.06,0,.14,0,.14.03-.03.06-.52.09-.33-.01.43.01.14.01.52l.02-.11v-.18s.02-.27.04-.14v.15s.02-.07.02-.07l-.02-.14c.02-.19,0-.47.02-.37,0,.04.02,0,.03.22,0,0,0,0,0,0,0-.12.02-.24.03-.15,0,.12,0,.41,0,.49,0-.31.04-.09.05-.42,0,.08,0,.27,0,.31v-.25c.02.08.02.12.02.28.02.05,0-.47.02-.27,0,.02,0,.06,0,.1.03.11.06-.16.08-.04,0,.38-.02.09-.01.41.04-.07.08-.45.12-.36v-.04c0-.53.02.26.04.01,0,.04,0,.29,0,.24.03.09.05-.13.09-.3v.14c.01.12.03.07.05.13,0-.14.01-.11,0-.31.05.78.09-.42.14.23,0,0-.01.12,0,.12l.04-.13c0-.23,0-.14-.01-.32,0-.14.02-.24.02-.24-.02.15,0,.37,0,.5,0-.07,0-.15,0-.22.02.41,0-.46.03-.19v.12c0-.06.02-.22.03-.19,0,.27-.01.12-.01.34.02-.02.03-.51.04-.24,0,.07-.02.08-.02.15.02.31.02.23.03.28h0s.03.13.03.13v-.09c.01-.7.03-.13.06-.58-.02.43,0,.25,0,.55,0,.08.02.18.01.26.01-.24.02.19.04-.16,0,.1.01,0,.01.25.02-.08,0-.17,0-.29.02-.33.06.4.09-.05.03-.19.04-.52.06-.68,0,.16,0,.36,0,.36.02.14.03.12.04,0,0,.09,0,.16,0,.27.01-.03,0-.36.02-.21,0,.11,0,.28-.01.39.01-.09.03-.27.04-.36,0,.17,0,.26-.01.37.02-.08.04-.15.05-.42v-.1s0,.23-.01.28c-.01.21-.02-.09-.02-.19v-.06c0-.57-.03.09-.05.06v-.42s-.01.35-.01.35c0-.11,0-.34,0-.4-.01-.21-.01.15-.03-.08,0-.04,0-.06,0-.07v.12c-.01-.09-.02-.29,0-.23-.03-.24-.04.31-.05,0v-.03c-.03.14,0,.31-.03.66l-.02-.75v.31s-.01-.03-.01-.16c-.01.21,0,.13,0,.33-.02-.28-.05.13-.05-.36,0,.23.02.18,0,.34,0-.52-.02.09-.04-.15,0-.27.02-.13,0-.37,0,.46-.03-.1-.04-.01,0,.36-.03.15-.05.27,0-.12-.04-.2-.06-.33v-.06c0,.37-.03.3-.04.37,0-.22,0-.31.01-.4h-.01c0,.12,0,.18-.02.22v-.27s-.04.32-.06.14c0,.26.02.71,0,.88,0-.14,0-.38,0-.43,0,.02,0,.11-.01.06v-.23c0-.1,0,.19,0,.17,0-.2,0-.14,0-.3,0-.02,0,.08.01,0-.01-.04-.02-.15-.03-.3,0,.11,0,.27,0,.29-.02.01,0-.24-.02-.34,0,.14-.02,0-.02.29,0,0,0-.14,0-.22-.01.13-.05.04-.04.35v.02s0,0,0,.01h0,0c-.03.29-.07-.17-.1-.04v-.1c-.02.11-.04.07-.06.28,0,0-.01-.18-.01-.3-.02.07-.02.19-.04.02.02-.17,0-.15.02-.13-.02-.09-.02-.24-.05.03,0-.25-.01-.32-.02-.24v.18s0,.01-.02,0v-.33c-.04-.4-.07.69-.1.01-.01.23.02.16.01.44-.02-.04-.04-.52-.04-.52-.03-.18-.02.49-.05.36,0,.12,0,.44-.01.55-.02-.04-.02-.5-.01-.59,0-.01,0,.03,0,.07,0-.04.01-.09,0-.22v.12c-.01-.12-.04-.11-.03-.3-.01.11,0,.19,0,.26-.02-.17-.04,0-.06-.12,0,.07,0,.2,0,.2-.04-.15-.02.23-.04.28-.01-.18,0-.43-.02-.28-.01-.12,0-.31,0-.41-.02.23-.04-.15-.05-.19v-.1c0,.06,0,.06,0,.05v.24s0-.04,0-.14c0,.16,0,.39,0,.61,0-.12-.03.13-.03-.19.03.11,0-.32.02-.37,0,.04-.01.04-.02,0,0-.04,0-.07,0-.08-.03-.28-.01.36-.04.35,0-.18,0-.34-.01-.3.01,0,0,.3,0,.43-.02-.14-.02.1-.03.09v.06c0,.18,0,.15-.01.21,0-.14.01-.1,0-.16-.01.31-.03-.32-.05-.11,0-.12,0-.33,0-.41-.02.23-.02-.24-.05-.05,0,.24,0,.18,0,.41l.04-.17-.02.35s.02-.15.03-.11c-.01.19-.01.14,0,.33-.02-.36-.03.21-.05-.03v-.59c-.03-.26-.05.3-.08.15v.1c0,.23-.01.03-.02.13,0-.2,0-.27-.01-.39,0,.15-.03-.01-.03.38l-.02-.26c-.03-.11-.03.56-.06.5,0-.21,0-.35.01-.51,0,0-.02-.04-.02.1,0-.12-.03.27-.03.08,0,.09,0,.29-.02.28,0-.04,0-.1,0-.1,0,.1-.02.13,0,.35-.03-.62-.08.04-.1-.48-.02.07-.04.13-.06.14,0-.06,0-.1,0-.08-.03-.18-.02.57-.04.36-.01-.32.02-.17,0-.29,0-.65-.03.09-.05-.29v-.04c-.01-.22-.03.25-.06.2,0,0,0-.06,0-.1-.02.33-.05.44-.07.53,0-.25.01-.13,0-.39-.01.04,0,.41-.02.49,0-.14-.02-.26-.02-.54h.02c-.01-.37-.03,0-.04-.06v-.16c-.03.05-.03.44-.06.42v.12c-.01.39-.01-.22-.03.07v-.39c-.02.1-.05.38-.07.46.01-.29.04-.44.05-.62-.01,0-.04.03-.05.22,0-.04.01-.13.02-.07-.01.31-.03.46-.06.46,0-.77-.06-.19-.08-.79-.04.28-.08-.12-.13-.08.02.6-.01.02-.01.63-.01.04-.02.03-.02-.01l-.03-.37c0-.18.01-.13,0-.27-.02-.05-.01-.26-.03-.42,0,.22,0,.31-.02.23l.02.28c-.03.33-.03-.51-.06-.19v-.19c0,.11-.05,0-.07.49,0-.07,0-.24,0-.28-.04-.07-.09.52-.13.22v-.15s-.01.28-.02.13c0-.06,0-.15,0-.16,0,.05-.02.26-.03.17v-.17c-.03-.2-.05.41-.09.51,0-.44-.03-.58-.05-.65v-.06c-.05-.05-.08.36-.12.54-.03-.48-.09-.2-.14-.47,0,.08,0,.34,0,.39-.01-.09-.03.31-.03-.1h0c0-.39-.03-.28-.05-.29v.53c-.05-.77-.12.28-.14-.41-.01.13-.02.13-.03.26v-.28c-.03-.07-.04-.11-.08-.04v-.2s-.02.82-.04.83v-.42s-.08-.36-.11.02c0-.06,0-.18,0-.2-.02-.01-.06-.29-.06.29,0-.38-.04-.04-.06.13v-.28c-.01.36-.01.45-.04.55,0-.04,0-.22,0-.15-.02-.15-.01.26-.04.12v-.18s0,.07-.02.28c-.01.11-.03-.07-.04-.32,0,.15-.01.36-.02.29,0-.1,0-.15,0-.18-.03-.19-.05.32-.07.05,0-.09,0-.14,0-.17.02,0,.04.02.04.04,0-.26-.02-.3,0-.66-.02.19-.04.61-.06.49,0-.02,0-.05,0-.09v-.03s0,0-.01.04c0-.04,0-.07-.02-.08,0-.21-.02-.11-.03-.12,0,.28-.01.24,0,.47,0-.02,0-.03,0-.05,0,0,0-.01,0-.03,0,0,0,.02,0,.02,0,0,.01-.01.02-.02,0,.14-.02.26-.03.11,0,.18-.01.37-.01.45-.01-.39-.04-.6-.04-.85-.03.16-.07.1-.09.63,0,.07,0-.15-.01-.23,0-.05.01-.04.01-.12-.02.14-.05.05-.05.42-.02-.17.01-.34-.02-.28v-.11c-.05-.59-.09.94-.15.18,0,.05,0,.07,0,.13-.07-.33-.15.31-.22-.22-.02-.11-.02.13-.04.31v-.3s-.03.35-.03.35c-.03.26-.05-.74-.09-.26v.2s-.04.12-.04-.11c0,.04,0,.21,0,.11v-.16s-.03.27-.03.27c-.03-.11,0-.63-.03-.66-.01.06-.04.46-.04.57,0,0,.01.1.02.26v.08c-.02.47-.03.94,0,1.27l.02-.28v.23s-.01.01-.01.01c.01.21.02.02.02-.1,0,.12,0,.2,0,.25l.02-.44c0,.18,0,.36,0,.46.01-.21,0-.41,0-.54.01.21,0,.38.02.2,0,.12,0,.2,0,.25.01-.14.03-.06.04-.31.01.26.04-.07.04.37,0-.11.02-.35.03-.36-.02.53.04.03.03.6.01-.47.05-.21.07-.47,0,.04,0,.11,0,.09.01.04.02.18.03.27,0-.39.02-.48.03-.72.02.38-.01.46,0,.82,0-.32.03-.32.02-.58.01.23.01.11.02.44,0-.49.01-.08.02-.38.02.24,0,.46.03.31,0,.15,0,.32,0,.32ZM-374.46,407.61h0s0,.02-.01.02c0,0,0,0,.01-.02ZM-374.41,407.61s-.01-.01-.02-.01c0-.1,0-.2,0-.19,0,.07,0,.12.01.2ZM-374.5,405.66s0,.02,0,.07c0,0,0,.01-.01.03,0,.01,0,.02,0,.03,0-.05,0-.1,0-.14Z"/>
        <path class="cls-2" d="M-374.51,406.03s0,.02,0,.02c0,.02,0,.05,0,.06,0-.03,0-.06,0-.09,0,0,0,0,0,0Z"/>
        <path class="cls-2" d="M-370.8,406.45h0s0,.02,0,.03c0-.01,0-.02,0-.03Z"/>
        <polygon class="cls-2" points="-373.85 408.15 -373.85 408.08 -373.85 408.14 -373.85 408.15"/>
        <path class="cls-2" d="M-370.57,407.41s0,.05,0,.07c0-.02,0-.04,0-.07Z"/>
        <path class="cls-2" d="M-370.47,407.47v.1c0-.06,0-.08,0-.1Z"/>
        <path class="cls-2" d="M-370.4,407.61s0-.09,0-.12c0,0,0,0,0,0v.12Z"/>
        <path class="cls-2" d="M-371.59,407.94s0,0,0,.01c0,.05,0,.03,0-.01Z"/>
        <path class="cls-2" d="M-371.24,407.29c0,.05,0,.1-.01.13,0,.02.01.03.01-.13Z"/>
        <polygon class="cls-2" points="-371.99 408.28 -371.99 408.28 -371.99 408.28 -371.99 408.28"/>
        <path class="cls-2" d="M-371.26,407.42c0,.06.01.04.02,0,0-.02-.01-.05-.02,0Z"/>
        <path class="cls-2" d="M-370.07,407.74h0s0-.02,0-.03v.03Z"/>
        <path class="cls-2" d="M-370.07,407.71v-.03s0,0,0,.03Z"/>
        <path class="cls-2" d="M-370.06,407.6v.07s0,0,0-.07Z"/>
        <path class="cls-2" d="M-370.17,407.61v.1s0-.05,0-.1Z"/>
        <path class="cls-2" d="M-370.2,407.64s.02.22.03.15v-.08c0,.15-.02-.24-.03-.07Z"/>
        <path class="cls-2" d="M-370.33,406.38l.03.08c0-.11-.01-.25,0-.28-.03-.32,0,.24-.03.2Z"/>
        <path class="cls-2" d="M-370.41,406.22c.01-.05,0-.16,0-.22,0,.1-.01.12,0,.22Z"/>
        <path class="cls-2" d="M-370.97,406.22v-.26s0,.1,0,.26Z"/>
        <polygon class="cls-2" points="-371.08 407.54 -371.07 407.7 -371.07 407.47 -371.08 407.54"/>
        <polygon class="cls-2" points="-371.15 405.72 -371.14 405.69 -371.16 405.78 -371.15 405.72"/>
        <path class="cls-2" d="M-372.1,405.81v.31c.01-.06.01-.41,0-.31Z"/>
        <path class="cls-2" d="M-372.51,406.13c0-.16-.02-.26-.02-.1,0,.02.02.14.02.1Z"/>
        <polygon class="cls-2" points="-373.74 405.62 -373.73 405.52 -373.75 405.6 -373.74 405.62"/>
      </g>
      <rect class="cls-3" width="1000" height="1000"/>
      <rect class="cls-1" width="1000" height="1000"/>
      <path class="cls-3" d="M294.08,352.76c-.08.03-.17.06-.26.1-.75.32-1.5.7-2.25,1.12.41-.18.81-.37,1.21-.59.43-.23.86-.43,1.29-.63Z"/>
      <path class="cls-3" d="M250.82,421.56c-.18-.45-.53-.69-1.03-.5-.23.09-.48.26-.73.47.27.02.55.04.85.05.29.01.6,0,.91-.01Z"/>
      <path class="cls-3" d="M258.05,417.55c.39-.3.14-.36.05-.46-.11-.1-.21-.18-.32-.25-.21-.14-.4-.23-.57-.28-.33-.14-1.92.46-3.41,2.02-.8.79-1.57,1.86-2.14,2.9,1.03-.14,2.09-.46,2.92-1.01,1.31-.88,2.5-1.94,3.47-2.91Z"/>
      <path class="cls-3" d="M250.76,424.01c.04-.21.09-.46.13-.73-.06.23-.11.44-.13.64,0,.04,0,.06,0,.09Z"/>
      <path class="cls-3" d="M248.01,946.21l-.84.83-.21.21c-.05.03-.04.07-.02.1l.04.1.17.41.66,1.63c.42,1.08.85,2.16,1.27,3.24.23.62.47,1.25.7,1.87.35-.84.78-1.66,1.24-2.41.67-1.14,1.4-2.18,1.93-3.13.26-.48.47-.94.59-1.38.03-.11.06-.22.08-.33-.02-.06.09-.11.17-.16l.25-.16c.33-.21.62-.43.89-.64,2.25-1.79,3.05-3.86,4.4-6.41.23-.44.48-.9.74-1.36-.65.33-1.32.68-2.02,1.04-3.54,1.83-7.65,4.2-10.05,6.56Z"/>
      <path class="cls-3" d="M249.13,959.73c.35,1.33,1.91,2.96,3.41,4.18.6.5,1.2.93,1.71,1.3-1.01-1.7-2.15-4.41-2.71-5.9-.6-1.6-1.19-3.16-1.77-4.69-.7,1.67-1.09,3.46-.65,5.12Z"/>
      <path class="cls-3" d="M260.07,938.61c2.71-1.4,4.99-2.59,6.54-4.14,1.23-1.23,2.23-2.9,3.11-4.7-1.6.64-3.18,1.45-4.78,2.73-2.07,1.66-3.66,3.96-4.87,6.11Z"/>
      <path class="cls-3" d="M255.47,966.68l1.15.52.21-.22c.17-.17.24-.29.26-.39.02-.15-.09-.12-.3.05l-.49.38-.46-.59c-.2-.26-.81-.67-1.59-1.22.45.76.88,1.32,1.22,1.47Z"/>
      <path class="cls-3" d="M278.25,45.26c.39-.12.8-.27,1.23-.43-.43.09-.9.17-1.4.26-.04.1,0,.17.18.17Z"/>
      <path class="cls-3" d="M404.51,3.62c-5.05,1.69-10.19,2.84-15.4,4.58-5.07,1.69-10.29,6.34-15.51,7.97-5.04,1.58-10.57,3.78-15.76,5.17-5.02,1.35-10.18,3.01-15.36,4.41-5.06,1.37-9.78,2.39-15.02,4.02-5.05,1.57-9.88-1.4-15.09.22-5.05,1.57-10.32,5.21-15.53,6.82-4.69,1.45-12.14,6.05-17.36,8.01.59-.12,1.1-.23,1.5-.34,5.47-1.45,11.14-4.56,16.18-5.81,5.44-1.36,10.75-2.95,15.78-4.19,5.43-1.34,10.7-3,15.76-4.33,5.45-1.44,10.86-3.22,15.93-4.48,5.38-1.34,10.39-1.89,15.49-3.15,5.31-1.31,9.79.38,14.97-.99,5.26-1.39,10.61-3.66,15.85-4.96,5.17-1.28,10.19-1.82,15.5-3.15,5.13-1.29,10.65-3.41,16.07-4.88,5.09-1.37,10.72-4.88,16.18-6.41,1.88-.53,3.81-1.3,5.79-2.15h-29.81c-3.36,1.2-6.76,2.49-10.16,3.62Z"/>
      <path class="cls-3" d="M281.71,42.37c-2.81.86-13.31,2.86-13.6,3.54-.25.58,5.79-.1,9.96-.82.25-.62,3.86-2.77,3.64-2.72Z"/>
      <path class="cls-3" d="M721.53,985.7c5.19-2.72,10.86-1.41,15.92-4.17,5.19-2.83,9.85-9.78,14.94-12.34,5.21-2.62,10.51-.95,15.6-3.51,5.21-2.62,10.08-9.38,15.14-12.14,5.19-2.83,10.54-2.6,15.64-5.11,5.22-2.57,10.36-4.35,15.45-6.84,5.23-2.56,10.75-5.08,15.8-7.85,5.2-2.85,10.8-6.63,15.79-9.88,2.54-1.66,4.5-4.39,6.44-7.11.48-.68.97-1.36,1.46-2.02l.18-.25.29-.3.58-.6c.38-.38.76-.76,1.15-1.15,1.51-1.5,3.04-2.75,4.69-3.91.87-.59,1.78-1.1,2.76-1.58l.75-.35c.25-.12.53-.19.7-.44.39-.41.8-.81,1.21-1.22,1.66-1.61,3.53-3.25,5.43-5.11,1.89-1.85,3.83-3.89,5.53-6.08,1.7-2.19,3.14-4.52,3.98-6.7.88-2.32,1.48-5.04,1.39-8.11-.04-1.5-.32-3.16-.87-4.67-.61-1.55-1.5-2.97-2.74-3.99-1.2-1.06-2.65-1.65-4.05-1.98-.71-.18-1.37-.21-2.06-.28-.39-.05-.53,0-.78,0l-.67.04c-1.76.1-3.18.18-4.4-.08-2.47-.52-4.8-.99-7.12-1.41-1.16-.21-2.32-.4-3.48-.57l-1.75-.23-.44-.05-.63-.04-1.36-.05c-.47-.01-.94-.04-1.41-.08-.48.02-.98.12-1.46.16-.49.05-.98.09-1.46.14-.48.04-1.05.1-1.26.04-1.17-.12-2.31-.33-3.44-.53-2.27-.39-4.53-.7-7.06.06-5.22,1.57-10.64,4.57-15.77,6.61-2.62,1.05-5.27,1.81-7.91,2.58-1.32.38-2.63.76-3.93,1.17-.65.21-1.3.42-1.94.65l-.96.35-.48.18-.24.09-.06.02h-.03s0,.01,0,.01c0,.04,0-.08-.01.08h0s-.01,0-.01,0l-.12.05c-5.29,2.2-9.86,2.95-14.92,4.53-5.22,1.65-11.36,9.72-16.39,11.11-5.19,1.45-10.16,2.06-15.19,3.47-2.59.74-5.1,1.33-7.58,1.96-2.49.65-4.96,1.27-7.48,2.04-5.21,1.58-10.11,1.24-15.17,2.84-5.21,1.65-10.44,4.8-15.5,6.41-5.2,1.65-9.9-1.54-14.94.01-5.2,1.6-10.44,5.05-15.49,6.42-5.17,1.41-11.14,7.04-16.18,8.4-5.17,1.39-9.81,1.91-14.87,3.47-5.18,1.59-10.05-1.63-15.14.08-5.18,1.74-10.34,4-15.43,5.71-5.17,1.74-10.14,3.13-15.23,4.72-5.15,1.61-10.16,3.58-15.26,5.02-5.13,1.45-10.12,2.17-15.22,3.61-5.12,1.46-10.85,8.23-15.99,9.83-5.09,1.59-10.11,2.18-15.23,3.79-5.12,1.61-10.33,4.41-15.5,6.03-5.11,1.6-10.04-.2-15.22,1.44-5.08,1.6-10.2,4.7-15.39,6.47-5.08,1.74-10.16,5.27-15.35,7.03-5.09,1.73-10.38,1.71-15.59,3.35-5.06,1.59-10.17,1.37-15.38,3.16-5.07,1.74-10.11,5.76-15.32,7.54-5.08,1.73-10.21.84-15.44,2.48-1.75.55-3.53,1.17-5.32,1.81h29.81c3.38-1.45,6.87-3.1,10.33-4.08,5.09-1.44,10.24-1.93,15.73-3.45,5.06-1.4,9.97-.21,15.48-1.91,5.1-1.57,10.42-3.7,15.92-5.38,5.12-1.56,10.93-6.52,16.41-8.06,5.53-1.54,10.51-.96,15.8-2.63,5.56-1.77,10.9-1.08,16.17-2.76,5.57-1.78,11.38-7.56,16.59-9.01,5.54-1.54,9.81,1.35,14.96.23,5.46-1.18,12.41-7.01,17.53-8.09,5.47-1.15,9.88-.04,15.05-1.46,5.55-1.53,10.65-1.69,15.81-3.03,5.53-1.44,10.41-.76,15.56-2.09,5.53-1.42,11.1-3.41,16.27-4.83,5.55-1.51,11.35-7.05,16.61-8.82,5.56-1.87,11.04-.27,16.31-2.08,5.55-1.9,10.43-3.09,15.69-4.54,5.44-1.49,11.15-5.11,16.38-5.99,5.23-.88,9.26,1.07,14.5.19,5.23-.87,12.07-6.93,17.52-8.39,5.25-1.42,10.24-1.12,15.77-2.97,5.25-1.76,10.65-4.01,16.2-5.86,2.64-.88,5.23-.92,7.84-.92.65,0,1.31,0,1.97,0h.03s0,0,0,0c-.02.16,0,.04,0,.08h0s.02,0,.02,0h.06s.12,0,.12,0h.25s.5-.03.5-.03l1-.06c1.34-.1,2.71-.31,4.1-.7,5.19-1.47,10.92-5.49,16.44-6.78,5.15-1.21,10.94-4.38,16.47-5.72.65-.16,1.29-.3,1.94-.43l.97-.19c.3-.05.73-.15.77-.12.26,0,.51-.02.74,0,.23.04.44.13.65.21l.16.05.39.05.83.09c.56.05,1.12.1,1.68.16,1.13.09,2.28.16,3.45.17.03,0,.07,0,.1,0-.02.17-.05.35-.08.53-.07.36-.18.75-.32,1.13-.07.19-.15.38-.24.57l-.07.14s-.04.09-.15.18l-.49.45c-1.3,1.19-2.64,2.23-4.03,2.98-5.22,2.81-11.03,3.55-16.52,6.8-5.18,3.07-10.28,6.98-15.76,10.2-5.24,3.08-10.3,8.33-15.86,11.32-5.08,2.73-10.57,5.59-15.71,8.02-5.11,2.41-10.16,2.43-15.29,4.85-5.14,2.43-10.11,6.12-15.23,8.87-5.08,2.72-10,5.4-15.07,8.41-5.03,2.99-9.94,6.47-14.99,9.47-5.06,3.01-11.07,1.04-16.18,3.78-5.09,2.73-9.63,5.69-14.78,8.1-5.11,2.39-10.26,4.8-15.4,7.2-5.15,2.41-10.66,6.04-15.79,8.79-4.69,2.51-9.96,4.62-14.71,7.37h56.8c1.59-.8,3.18-1.61,4.78-2.45,5.2-2.74,9.97-9.18,15.06-11.84Z"/>
      <path class="cls-3" d="M258.05,417.55c.39-.3.14-.36.05-.46-.11-.1-.21-.18-.32-.25-.21-.14-.4-.23-.57-.28-.33-.14-1.92.46-3.41,2.02-.8.79-1.57,1.86-2.14,2.9,1.03-.14,2.09-.46,2.92-1.01,1.31-.88,2.5-1.94,3.47-2.91Z"/>
      <path class="cls-3" d="M294.08,352.76c-.08.03-.17.06-.26.1-.75.32-1.5.7-2.25,1.12.41-.18.81-.37,1.21-.59.43-.23.86-.43,1.29-.63Z"/>
      <path class="cls-3" d="M250.76,424.01c.04-.21.09-.46.13-.73-.06.23-.11.44-.13.64,0,.04,0,.06,0,.09Z"/>
      <path class="cls-3" d="M250.82,421.56c-.18-.45-.53-.69-1.03-.5-.23.09-.48.26-.73.47.27.02.55.04.85.05.29.01.6,0,.91-.01Z"/>
      <path class="cls-3" d="M.74,471.42c5.14-2.01,10.31-5.89,15.45-7.69,5.13-1.8,10.36-4.53,15.5-6.33,5.14-1.8,10.23-3.65,15.38-5.67,5.14-2.01,9.99-6.28,15.14-8.64,5.14-2.35,10.74-.4,15.89-2.75,5.17-2.36,10.05-3.5,15.21-5.51,5.14-2.01,10.46-8.2,15.6-10.12,5.13-1.88,10.27-3.75,15.4-5.63,5.14-1.92,10.15-1.05,15.29-3.06,5.14-2.01,9.76-1.48,14.89-3.18,5.12-1.69,10.19-2.97,15.31-4.66,5.14-1.7,10.98-10.21,16.13-12.22,5.14-2.01,10.24-1.01,15.39-3.24,5.14-2.23,10.38-2.72,15.53-4.95,5.15-2.23,10.28-10.43,15.43-12.44,3.96-1.55,7.87-.2,11.8-.47-4.25,2.67-8.34,6.18-12.67,8.39-5.1,2.62-9.92,8.47-15.02,11.07-5.11,2.6-10.16,5.04-15.25,7.74-5.09,2.7-10.67,1.59-15.75,4.3-5.08,2.69-10.23,4.84-15.31,7.52-5.08,2.69-9.79,8.37-14.87,11.02-5.08,2.65-10.59,2.77-15.64,5.48-2.45,1.32-4.75,3.65-7.04,6-.67.22-1.34.48-2.01.77-3.08,1.35-6.21,4.51-9.31,7.3-3.9,1.31-7.9,1.89-11.7,3.84-.76.39-1.5.88-2.23,1.43-2.69-.23-5.4-.51-8.21.71-3.6,1.61-7.12,5.58-10.59,8.82l2.9,30.04c1.73-1.64,3.47-3.09,5.22-3.96,2.59-1.29,5.24-1.92,7.89-2.59,1.33-.34,2.65-.66,3.97-1.09,1.31-.44,2.61-.97,3.9-1.68,2.63-1.45,5.06-3.8,7.49-6.13,3.72-1.65,7.44-3.29,11.17-4.88,3.31-1.4,6.62-3.83,9.94-5.93.69-.28,1.37-.58,2.05-.93,1.22-.62,2.43-1.33,3.64-2.08,4.97-1.81,9.87.64,14.82-1.4,5.08-2.11,10.39-7.87,15.49-9.63,5.09-1.77,9.36,2.6,14.42.89,5.09-1.74,10.71-4.04,15.81-6.06,5.09-2.03,10.41-9.6,15.52-11.49,5.1-1.9,10.02-1.38,15.1-3.25.06-.02.12-.05.19-.08-2.69,3.04-5.28,6.35-8.29,8.39-4.95,3.36-11.89.65-16.84,3.96-4.96,3.32-9.01,9.56-13.98,12.83-4.98,3.27-9.43,8.4-14.41,11.67-4.98,3.27-10.72,3.91-15.67,7.23-4.97,3.33-9.72,10.72-14.84,13.54-5.09,2.8-10.37.52-15.45,3.31-5.14,2.82-10.59,5.76-15.56,9.09-4.97,3.33-10.75,6.35-15.57,10.16-4.79,3.78-8.62,9.02-13.4,12.8-4.83,3.81-8.28,11.39-13.25,14.72-4.97,3.31-11.62,1.7-16.54,5.11-4.94,3.37-9.89,6.75-14.83,10.11-4.94,3.4-8.15,11.84-13.13,15.1-5.01,3.27-11.06.6-16.24,3.24-5.13,2.62-10.42,10.34-15.54,12.96-1.47.75-2.94,1.21-4.42,1.56v26.51c3.67-1.91,7.44-3.51,10.98-5.85,4.98-3.29,10.93-3.48,15.93-6.75,4.99-3.26,9.53-8.41,14.65-11.25,5.09-2.82,10.14-6.72,15.23-9.55,5.15-2.85,11.17-1.55,16.21-4.83,4.99-3.26,8.23-11.99,13.2-15.35,4.96-3.37,10.44-5.18,15.4-8.55,4.96-3.37,9.55-8.05,14.53-11.39,4.97-3.33,11.14-3.45,16.03-7.08,4.86-3.62,9.23-8.22,14.09-11.84,4.89-3.64,10.74-4.18,15.74-7.52,4.97-3.33,8.52-11.21,13.49-14.53,4.98-3.29,9.96-6.59,14.95-9.89,4.98-3.33,11.28-2.42,16.26-5.75,4.97-3.33,9.86-6.53,14.86-9.79,4.99-3.26,8.24-12.93,13.23-16.19,4.99-3.26,11.39-1.62,16.37-4.95,1.24-.83,2.46-1.75,3.66-2.7l.9-.72.45-.37.22-.18.38-.29,3.17-2.4c4.2-3.19,8.22-6.24,12.53-9.03,4.3-2.78,9.01-5.31,14-8.02l1.88-1.02.94-.52.47-.26v-.48c.03-1.29.03-2.61.02-3.95-.03-2.67-.13-5.44-.39-8.23-.51-5.61-1.95-11.04-3.35-15.82-.61-2.1-1.21-4.09-1.73-6.06,4.24-2.03,8.63-3.75,12.73-6.31,5.02-3.14,9.01-9.24,14.02-12.38,5.07-3.18,10.4-6.66,15.55-9.45,7.98-4.33,16.7-8.86,25.28-13.02,1.07-.52,2.19-.97,3.38-1.39.59-.21,1.2-.41,1.83-.6l.95-.29.48-.14c.07-.08.1-.18.16-.27.78-1.44,1.75-2.83,2.72-4.35,1.95-3,3.92-6.6,4.38-11.02.34-3.34-.02-6.9-.61-10.26-.58-3.38-1.38-6.55-1.87-9.57l-3.35-20.44-14.44,9.88c-1.35.92-2.67,1.71-3.94,2.2-5.14,2.01-10.04,4.2-15.19,6.83-5.12,2.61-10.72,3.23-15.84,5.84-5.16,2.64-9.93,2.34-15.08,4.36-5.13,2.01-10.39,7.05-15.52,9.15-5.13,2.09-10.26,5.59-15.4,7.68-5.14,2.1-10.39,7.94-15.52,9.95-5.13,2.01-10.38,2.98-15.51,4.86-5.13,1.88-9.7-3.37-14.82-1.48-5.13,1.89-10.53,6.55-15.66,8.56-5.13,2.01-10.42,2.31-15.55,4.5-5.13,2.19-10.18,6.49-15.31,8.68-5.14,2.19-10.35,9.04-15.48,11.05-5.14,2.02-9.36-3.61-14.48-2.18-5.09,1.43-10.04,2.16-15.12,3.59-5.13,1.44-11.31,10.99-16.45,13.01-5.13,2.01-10.1,2.71-15.23,4.84-5.13,2.13-10.3,2.56-15.42,4.69-5.14,2.13-10.2.63-15.33,2.64-5.14,2.01-10.48,9.78-15.61,11.75s-9.94-2.9-15.06-.93c-5.13,1.97-10.46,9.05-15.59,11.05-5.13,2.01-10.21,3.2-15.35,5.67-1.01.49-2.04.82-3.09,1.08v33.72c.25-.09.49-.17.74-.27ZM293.83,352.86c.08-.04.17-.06.26-.1-.43.2-.86.4-1.29.63-.4.22-.81.41-1.21.59.75-.42,1.5-.8,2.25-1.12ZM253.81,418.58c1.49-1.56,3.08-2.16,3.41-2.02.16.05.36.14.57.28.1.07.21.16.32.25.09.1.34.16-.05.46-.96.98-2.16,2.04-3.47,2.91-.83.56-1.89.87-2.92,1.01.57-1.04,1.34-2.11,2.14-2.9ZM250.76,424.01s0-.05,0-.09c.02-.19.07-.41.13-.64-.04.27-.09.52-.13.73ZM249.79,421.06c.5-.19.85.06,1.03.5-.32.02-.63.02-.91.01-.3,0-.58-.03-.85-.05.25-.21.5-.38.73-.47Z"/>
      <path class="cls-3" d="M1.82,668.32c5.14-2.26,10.39-3.45,15.52-5.71,5.18-2.28,10.38-3.72,15.52-5.59,5.13-1.87,10.42-4.34,15.51-5.76,5.09-1.42,10.73-5.39,15.81-6.8,5.13-1.43,9.73-3.01,14.87-4.88,5.15-1.87,10.13-.53,15.3-2.99,5.14-2.45,9.74-8.09,14.87-10.54,5.19-2.47,11-3.96,16.13-5.83,5.15-1.87,9.38,1.47,14.47.28,5.06-1.18,11.31-6.41,16.35-7.58,5.12-1.19,9.96-3.98,15.1-5.85,5.13-1.87,9.66-4.27,14.8-6.64,5.14-2.37,11.25,2.02,16.37-.34,5.2-2.4,9.96-10.19,15.11-12.06,5.15-1.87,10.33-4.73,15.47-6.63,5.14-1.9,10.05.5,15.17-1.39,5.12-1.89,10.34-5.88,15.44-7.73,5.14-1.87,10.53-5.13,15.63-6.76,5.12-1.63,9.68.58,14.78-1.04,5.13-1.63,10.58-6.62,15.7-8.48,5.14-1.87,10.14-1.65,15.25-3.45,5.14-1.82,10.37-4.95,15.48-6.76,5.13-1.81,10.13-1.98,15.24-3.84,5.14-1.87,10.34-6.83,15.47-8.82,5.14-2,10.2,2.47,15.32.48,5.15-2,10.54-11.66,15.66-13.53,5.14-1.87,9.96,2.46,15.08.54,5.15-1.93,10.33-5.18,15.45-7.1,5.14-1.93,10.34-5.7,15.45-7.56,5.14-1.87,10.32-.55,15.45-2.64,5.15-2.09,10.2-7.78,15.32-9.87,5.16-2.1,10.42-5.42,15.54-7.29,5.01-1.84,9.43,2.68,14.6,1,5-1.62,11.17-11.69,16.34-13.38,3.13-.96,4.6.06,6.88-.78,1.16-.43,1.67.14,1.84.84.2.68.05,1.48.89,1.15.83-.32,2.04-1.04,3.39-1.79,1.33-.75,2.8-1.56,3.8-1.94.99-.38.78.21.32.91-.44.69-1.14,1.47-.43,1.21.7-.26,2.5-1.3,4.46-2.39,1.96-1.09,4.04-2.21,4.78-2.44.75-.24-2.02,1.78-5.26,3.97-3.2,2.18-6.88,4.53-6.66,4.48.44-.09,2.82-1.3,3.7-1.62.37-.13,8.76-4.8,17.94-9.75,9.09-4.92,18.97-10.13,20.16-10.56,1.14-.41-1.02.97-3.46,2.45-2.41,1.47-5.11,3.05-4.26,2.74.43-.15.73-.24.95-.28.11-.02.2-.04.29-.04h.12s.06-.01.06-.01c0,0,.03-.02.01.02l-.06.11c-.69,1.17-1.37,2.29-1.46,3.14-.09.82,2.85.27,6-.15,3.15-.44,6.53-.75,7.34,0-.16.23-3.94,1.8-7.5,3.26-3.59,1.47-6.94,2.81-7.04,3.01-.11.21-2.59,1.24-5.11,2.26-2.54,1.03-5.12,2.04-5.94,2.47-.8.42,1.99-.3,4.31-.8,2.36-.52,4.27-.82,2.69-.08-1.51.7.36.44,1.87.38,1.55-.09,2.74.01.94.87-1.78.84-4.24,1.83-6.51,2.74-2.27.91-4.32,1.73-5.61,2.41-1.32.7-7.05,2.13-12.13,3.18-5.16,1.09-9.66,1.8-10.48,2.1-1.69.63-3.27,1.17-4.6,1.62-.64.21.52.68,1.17,1.46.71.74.91,1.79-.07,2.31-1.92,1.02-4.23,1.68-5.97,2.24-.22.07-.43.16-.64.25l-.16.07-.46.24-.96.51c-1.28.69-2.56,1.42-3.84,2.14-2.56,1.45-5.13,2.91-7.7,4.08-5.13,2.35-10.79-2.16-15.91.55-5.09,2.69-9.5,10.1-14.53,13.48-4.96,3.33-10.82,4.81-15.8,8.15-5.01,3.36-9.38,7.36-14.51,10.08-5.08,2.69-10.32,4.89-15.41,7.72-5.06,2.81-9.58,8.67-14.66,11.49-5.07,2.81-10.8,1.27-15.9,3.97-5.08,2.69-9.9,6.81-15.02,9.35-5.1,2.53-10.38,2.58-15.5,5.12-5.11,2.54-9.92,9.25-15.02,11.95-5.08,2.69-9.94,8.42-15.05,11-5.1,2.57-10.27,4.36-15.38,6.94-5.1,2.58-10,5.75-15.1,8.45-5.08,2.69-11.1-.26-16.17,2.6-5.06,2.86-8.97,11.39-14.03,14.25-5.07,2.86-10.45,5.1-15.54,7.8-5.1,2.7-10.19-1.07-15.38.94-5.14,1.98-10.5,5.4-15.64,7.38-5.2,2.01-10.39,7.64-15.51,10.35-5.09,2.7-10.31,4.22-15.38,7.06-5.07,2.84-10.99,1.3-16.05,4.14-5.07,2.84-9.79,6.4-14.88,9.1-5.09,2.7-9.4,12.18-14.5,14.79-5.1,2.61-10.81-.99-15.9,1.62-5.1,2.61-9.85,8.6-14.93,11.3-5.1,2.7-10.39,3.78-15.48,6.44-5.09,2.66-10.36,3.78-15.44,6.43-.32.17-.63.35-.95.55l-.47.31-.23.17-.12.08-.22.14c-1.19.76-2.36,1.58-3.5,2.41-2.28,1.68-4.44,3.45-6.49,5.16-4.12,3.44-7.65,6.58-11.89,8.82-4.27,2.26-9.08,4.19-14.11,6.29-5,2.08-10.2,4.33-14.38,6.78-8.04,4.71-16.12,9.43-24.13,14.12-3.86,2.28-9.69,4.64-16.04,7.21-2.59,1.05-5.26,2.13-7.85,3.21v61.14c1.54-.72,3.11-1.47,4.67-2.22,6.23-2.98,12.19-5.91,16.16-7.34,4.03-1.44,6.63-1.78,9.67-2.36,3-.57,6.42-1.37,11.2-3.43,4.78-2.06,10.4-5.25,15.54-8.27,5.17-3.04,9.87-5.9,13.73-7.63,7.92-3.55,16.28-6.71,23.19-9.18,1.74-.62,3.4-.94,5.12-1.13l1.3-.12.66-.04c.23-.02.46-.03.59,0,.62.05,1.25.12,1.87.2,2.49.32,4.96.74,7.48.23,5.04-1.02,10.16-2.2,15.13-3.18,5.12-1.01,10.15-2.7,15.25-4.54,5.16-1.86,10.22-3.62,15.34-6.12,5.16-2.5,10.76-2.7,15.84-5.18,5.21-2.55,9.97-7.71,15.05-9.54,5.16-1.86,10.09-.76,15.16-2.59,5.16-1.87,10.25-3.34,15.31-5.17,5.15-1.87,10.6-9.41,15.65-11.23l.97-.34.88-.29c.38-.11.76-.22,1.13-.31.74-.19,1.47-.35,2.17-.5l1.04-.23.51-.12.26-.06c.07.02.12.09.17.13.45.38.89.73,1.37,1.02.49.3.73,1.02.75,1.88,0,.22,0,.44-.02.67,0,.12-.04.22-.02.36l.12.46.22.95c.01.08.04.16.05.24l-.04.19-.09.37c-.13.5-.25.94-.44,1.42l-.53,1.3-.05.14s.01.15.02.22l.07.45c.06.29.13.58.21.84.17.53.41.99.73,1.37.09.1.18.2.28.29l4.88,4.24,4.68-1.11c1.16-.27,2.43-.95,3.75-1.81-.12,4.37,2.21,8.52.9,12.86-.41,1.34-.86,2.66-1.34,3.97l-.36.98c-.1.25-.17.38-.26.57l-.5,1.03c-.66,1.35-1.24,2.54-1.55,3.83l-.13.5-.07.24c-.02.08-.04.17-.14.21-.32.22-.65.44-.99.65-.67.42-1.35.81-2,1.17-.64.35-1.27.69-1.89,1.03-.3.17-.59.33-.87.5-.09.05-.11.06-.24.15l-.44.31-.44.32-.64.47c-3.81,2.83-7.32,6.16-10.5,9.23-3.2,3.09-6.08,5.93-9.47,8.45-.45.33-.92.66-1.4.99l-.18.12-.09.06v.13s-.03.51-.03.51l-.06,1.02c-.09,1.37-.24,2.75-.43,4.18-.18,1.43-.4,2.91-.64,4.45-.24,1.46-.47,3.45-.75,4.21-1.07,4.1-2.07,8.63-1.84,12.38.26,3.96.38,7.98.52,11.97l.03.75v.37s.02.09.02.09c.02,0,.06,0,.09,0l.19-.02,1.48-.17c.99-.12,1.98-.24,2.97-.36,1.98-.25,3.96-.52,5.94-.83,4.24-.66,8.7-2.04,12.76-3.33,1.01-.32,2.01-.64,3-.96.57-.17.79-.28,1.12-.41l.94-.36c1.25-.46,2.47-.84,3.64-1.05,5.01-.91,8.76,2.76,13.38,2.07,5.01-.77,10.09-2,14.77-2.86,5.05-.93,10.75-6.06,15.43-6.95,5.07-.96,9.02,2.11,13.66,1.38,5.04-.79,10.34-3.35,15.03-4.23,5.05-.95,9.53.17,14.24-.74,5-.98,10.23-4.24,14.91-5.01,1.23-.2,2.54-.6,3.88-1.09.67-.24,1.34-.51,2.02-.79.55-.25.91-.5,1.4-.75.45-.23.89-.36,1.34-.53.18-.08.6-.14.89-.21l.95-.16c1.26-.19,2.45-.26,3.51-.1,1.08.16,2.04.54,2.94,1.02.45.24.89.51,1.31.79l.32.21c.08.07.11.14.17.21l.29.42c.75,1.13,1.13,2.23,2.05,2.48.92.25,2.46-.27,4.34-.85l.18-.05.09-.03.04-.05.14-.2c.09-.13.19-.25.28-.36.18-.22.35-.4.5-.54.15-.14.27-.24.37-.31l.12-.08s.02-.04.02,0v.13s-.01.27-.01.27c-.1,1.43-.78,3-1.37,4.36-.3.69-.57,1.34-.75,1.99.01.18-.2.3-.36.43-.16.13-.32.27-.46.4-.29.27-.56.56-.79.87-.87,1.14-1.31,2.63-2.12,4.45-.2.45-.42.92-.66,1.4-.39.61-.83,1.25-1.27,1.86-.88,1.23-1.83,2.44-2.9,3.57-4.03,4.27-9.27,8.22-13.88,12.54-4.22,3.95-9.04,7.51-13.45,11.98-4.07,4.12-8.75,8.01-13.19,12.46-4.12,4.12-6.91,10.03-11.5,14.34-4.22,3.97-11.48,4.33-16.12,8.5-4.32,3.88-5.02,13.07-9.63,17.26-4.31,3.94-12.86,2.76-17.41,7.03-2.13,1.99-3.41,4.97-4.71,8.01-.5,1.17-1.01,2.36-1.57,3.5,1.12-.45,2.25-.82,3.39-1.2,2.75-.91,5.44-1.82,7.65-3.69,4.73-3.98,9.41-7.32,13.9-10.93,4.8-3.86,9.69-6.89,14.18-10.48,4.79-3.83,9.21-8.4,13.59-12.11,4.74-4.02,8.52-9.36,12.94-13.09,4.74-4,10.2-6.2,14.6-9.93,4.71-3.97,9.78-6.76,14.17-10.46,4.72-3.98,7.61-10.86,11.94-14.79,1.14-1.04,2.21-2.15,3.24-3.3.51-.57,1.02-1.16,1.52-1.75l.37-.44.47-.53.94-1.06c2.48-2.82,4.7-5.41,7.25-7.74.66-.61,1.38-1.19,2.15-1.76.38-.29.78-.57,1.19-.85.38-.29.95-.53.96-.92.56-1.43,1.27-2.88,2-4.43,1.46-3.06,2.98-6.6,3.51-10.03l.18-1.33.21-1.83c.13-1.22.24-2.42.34-3.6l.25-3.5.11-1.71.05-.84v-.21c.02-.07.04-.16-.04-.13h-.32c-3.41.16-6.59.25-9.3-.25-2.69-.49-5.79-.68-8.87-.87l-2.03-.13-1.69-.14c-1.12-.11-2.21-.26-3.26-.48-1.03-.22-1.87-.82-2.61-1.6-.19-.2-.37-.4-.55-.62-.1-.11-.15-.21-.29-.33l-.45-.35-.93-.72c-.32-.23-.62-.53-1-.66-.71-.32-1.5-.65-2.26-.93-.46-.33-.93-.63-1.42-.88-.99-.49-2.06-.77-3.28-.64-4.62.51-10.91,5.84-15.92,6.72-4.7.83-9.7,2.35-14.73,3.21-4.71.8-9.52,1.28-14.49,1.87-4.6.54-7.82-3.23-12.72-2.81-4.56.39-10.74,4.85-15.65,5.3-4.58.42-7.93-3.71-12.9-3.1-4.61.58-10.98,7.1-16.06,8.22-1.19.26-2.34.24-3.48.07-.29-.04-.57-.09-.85-.15l-.43-.09c-.17-.03-.15-.08-.24-.13-.24-.18-.46-.39-.67-.6-.83-.83-1.22-1.72-2.27-1.39-.51.16-1.1.41-1.74.7l-1.01.46-.26.12s-.1.05-.13.05l-.05-.04-.19-.17c-.49-.47-.94-1.19-.96-2.36-.02-.84-.56-1.37-1.19-2.03,3.07-1.77,5.65-3.43,8.39-4.97.31-.2.59-.36.92-.56.45-.28.9-.55,1.35-.81.91-.53,1.85-1.03,2.81-1.53,1.92-1,3.96-1.97,6.09-3.04,2.12-1.07,4.32-2.22,6.53-3.52,1.1-.65,2.21-1.33,3.29-2.05l.41-.27c.07-.12.1-.26.15-.39l.26-.8c.17-.54.33-1.08.48-1.64,1.09-4.13,1.81-8.46,2.43-12.68.15-1.05.31-2.1.46-3.15l.23-1.57.09-.96c.12-1.27.28-2.57.52-3.89.91-4.88-2.2-8.8-1.18-14.04.84-4.34,3.87-9.52,5.56-14.3l3.36-9.53-10.62.18c-.63.01-1.26.05-1.89.13-3.31.41-6.99,1.59-10.58,2.4-.02-.14-.05-.28-.07-.42l-.05-.44c-.02-.16-.09-.37-.13-.56l-.28-1.18c-.22-.77-.29-1.72-.71-2.32-.35-.68-.71-1.38-1.13-2.05-.22-.56-.37-1.06-.61-1.56-.94-1.28-2.07-2.47-3.42-3.39-1.34-.92-2.64-1.92-3.94-3.01-.65-.56-1.31-1.12-1.97-1.69-.09-.05-.15-.19-.27-.17l-.38.09-.76.18-1.53.36c-4.1.96-8.48,2.05-12.96,3.62-4.92,1.71-10.7,8.98-15.76,10.31-4.88,1.28-8.96-1.46-13.99-.12-4.95,1.32-10,.09-15.12,1.87-4.95,1.73-10.24,7.13-15.32,8.87-4.96,1.7-9.95,3.07-15.02,4.82-4.97,1.71-10.04,3.82-15.11,5.59-4.97,1.74-9.91.53-14.98,2.41-4.98,1.85-10.02,3.98-15.09,5.85-2.5.92-5.01,2.32-7.53,3.7-1.26.69-2.52,1.38-3.79,2.01-.63.31-1.26.61-1.9.89-.43.18-.36.17-.46.22-.07.04-.14.07-.21.1-.54.19-1.25,1.09-2.28,2.13-1,1.03-2.33,2.22-3.33,2.71-1,.49-.93-.65-.29-1.99.57-1.32,1.71-2.83,1.14-2.49-.57.34-3.13,2.59-6.21,4.99-3.02,2.38-6.56,4.91-7.58,5.27-1.01.36.89-1.58,3.45-3.79,2.51-2.19,5.67-4.65,5.76-4.84.03-.09-1.32.8-3.54,2.25-2.22,1.45-5.29,3.44-8.55,5.5-3.25,2.06-6.69,4.18-9.44,5.81-2.74,1.63-4.79,2.77-5.08,2.79-.62.06,6-4.43,13.41-9.15,3.68-2.35,7.5-4.75,10.43-6.56,1.18-.73,2.36-1.46,3.56-2.2.86-.53,1.35-.84,1.31-.83-.16.04-1.17.59-2.65,1.38-1.81.96-3.63,1.92-5.3,2.8-6.6,3.55-12.49,6.72-18.41,9.91-8.55,4.57-17.71,9.36-20.51,10.66-2.79,1.3-3.69,1.55-4.04,1.54-.18,0-.25-.07-.35-.11-.03,0-.06-.01-.11-.01h-.03s.05-.12.05-.12l.09-.24c.1-.32.15-.6.13-.85-.1-.96-4.99.34-9.69,1.21-4.69.9-9.2,1.36-8.4-.29.4-.81,1.72-1.96,3.51-3.24.45-.32.93-.64,1.43-.98l.77-.5c.3-.16.69-.28,1.03-.43l4.33-1.71c5.8-2.28,11.28-4.4,13.2-5.25,1.92-.85-.42-.22-2.67.33-2.28.56-4.46,1.03-3.13.34,1.32-.69,6.25-2.55,10.97-4.26,4.76-1.73,9.31-3.32,10.79-3.97,1.48-.65,1.23-.8,1.13-1.02-.12-.21-.1-.5,1.41-1.17,1.53-.68,7.77-2.49,13.26-3.93,5.56-1.48,10.39-2.61,10.75-2.79.37-.19-.98-.07-2.13-.08-1.17,0-2.14-.14-1.73-.46.38-.31-1.26-.46-2.46-.85-1.24-.36-2.05-.96-1.09-1.57.93-.6,1.76-1.25,2.7-1.94.94-.68,1.99-1.41,3.22-2.05,1.23-.65,2.98-1.01,4.46-1.25,1.51-.25,2.78-.36,3.74-.87.49-.26.96-.55,1.44-.87l.72-.49.37-.25s.2-.13.36-.22l.46-.28c2.48-1.48,4.96-2.96,7.46-4.28,5-2.65,10.63-.21,15.62-2.84,5.01-2.64,9.62-4.86,14.65-7.17,5.04-2.31,10.08-8.19,15.1-10.49,5.06-2.32,10.58-.74,15.58-3.38,5.03-2.65,8.21-12.64,13.13-15.87,4.91-3.23,11.16-3.31,16.04-6.53,4.96-3.27,9.55-8.84,14.55-11.48,5.02-2.65,10.06-5.54,15.05-8.1,5.03-2.58,10.04-5.14,15.03-7.69,5.03-2.58,9.77-6.69,14.74-9.31,5.04-2.65,10.73-2.5,15.78-4.61,5.07-2.13,9.92-1.17,14.93-3.25,5.11-2.13,9.85-8.94,14.82-11.56,5.05-2.66,10.65-.49,15.62-3.09,5.05-2.64,9.89-6.78,14.86-9.37,5.03-2.62,10.4-2.1,15.33-4.7,5.07-2.67,9.06-10.16,13.95-13.41,4.94-3.29,11.3-3.37,16.13-6.62,4.99-3.35,9.06-8.24,14.01-10.85,5.07-2.67,10.07-4.36,15.04-6.65,5.1-2.35,10.13-3.53,15.09-5.79,5.13-2.34,10.43-4.7,15.35-7.29,5.1-2.69,9.88-6.94,14.83-9.23,5.14-2.38,10.18-4.42,15.11-6.68,5.16-2.36,10.36-3.86,15.23-6.42,5.14-2.7,10.21-5.33,15.05-7.99,5.15-2.83,10.1-5.8,14.9-8.46,2.59-1.43,5.17-2.39,7.7-3.3,1.27-.46,2.52-.9,3.75-1.39.62-.24,1.23-.5,1.84-.77l.46-.21.86-.43,1.7-.88c4.81-2.54,9.59-5.53,14.13-8.44,4.56-2.92,8.88-5.76,13.29-8.29,8.72-4.99,17.83-9.82,26.27-14.66,4.23-2.42,6.35-4.9,7.99-7.07,1.69-2.2,2.89-4.09,6.79-6.15,7.76-4.1,16.75-8.65,26.26-13.14,2.35-1.11,4.9-2.25,7.58-3.44,2.71-1.19,5.42-2.38,8.12-3.57,3.17-1.58,6.2-3.14,8.39-4.55,2.2-1.41,3.11-2.51,3.92-3.58.8-1.06,1.49-2.1,2.97-3.35,2.9-2.48,3.72-4.12,5.3-6.22,1.5-2.05,1.97-3.68,4.33-5.83,1.19-1.08,5.15-3.13,8.78-5.18,3.35-1.78,5.91-3.2,6.79-4.02l.35-.31c.06-.07.13-.07.18-.19l.11-.54c.15-.72.31-1.44.5-2.16.37-1.45.8-2.93,1.24-4.41.88-2.97,1.8-5.99,2.32-8.93.51-2.92.13-5.5-.25-8.03l-.14-.95c-.07-.28,0-.79-.36-.57l-1.58.31c-1.01.2-1.94.35-2.58.36-1.28,0-3.16.35-5.21.81-2.04.45-4.24,1.01-5.8,1.19-1.53.17-3.52.61-5.55,1.08-2.02.47-4.09.97-5.55,1.09-1.47.14.3-1.76,2.51-4,2.17-2.2,4.78-4.74,3.84-5-.97-.24-1.04-1.07-1.05-1.96-.02-.88.03-1.82-.99-2.04-.51-.11-1.24-.08-2.1.04l-.67.11s-.51.18-.84.32l-1.08.44c-1.46.6-2.91,1.21-4.37,1.81-5.86,2.44-11.68,4.89-16.72,6.85-5.03,1.96-11.76,5.23-18.13,8.37-6.41,3.15-12.45,6.17-16.99,7.95-4.52,1.77-7.08,1.88-10.02,2.09-2.89.2-6.16.5-10.87,2.22-4.68,1.71-10.9,5.14-16.57,8.4-5.73,3.28-10.93,6.38-15.08,7.98-4.14,1.59-7.75,2.03-11.82,2.64-4.01.59-8.49,1.35-13.01,3.08-5.12,2.04-10.07,4.4-15.21,6.27-5.12,1.86-9.77,3.9-14.88,5.2-5.05,1.29-9.71.82-14.79,2.13-5.09,1.31-11.42,9.86-16.57,11.74-5.11,1.86-9.53-2.73-14.65-1.11-5.09,1.6-10.14,2.84-15.25,4.45-5.11,1.61-10.55,3.19-15.69,5.06-5.13,1.87-10.67,7.57-15.86,10.19-5.12,2.58-10.65,3.61-15.79,6.2-5.18,2.6-9.71,4.99-14.87,6.87-5.13,1.87-11.12,8.06-16.22,9.23-5.04,1.15-9.71.89-14.76,2.05-5.1,1.17-9.86,1.49-15.01,3.37-5.11,1.86-9.96,6.49-15.12,8.8-5.12,2.29-10.77-.22-15.91,2.07-5.17,2.31-10.14,7.38-15.3,9.26-5.11,1.86-10.71,5.39-15.82,6.85-5.07,1.44-9.48-.48-14.57.97-5.11,1.46-10.29,2.4-15.44,4.28-5.11,1.86-10.34,3.04-15.48,5.1-5.12,2.05-10.24,5.92-15.38,7.97-5.13,2.05-10.07,1.16-15.21,3.03-5.11,1.87-9.95,2.73-15.07,4.45-5.1,1.71-10.45,5.46-15.57,7.18-5.11,1.72-10.23,1.71-15.36,3.58-5.13,1.87-10.9,5.29-16.08,7.7-5.13,2.39-10.43,3.82-15.57,6.22-5.16,2.4-9.84,9.43-14.98,11.3-5.12,1.87-11.05,6.23-16.15,7.61-5.06,1.37-9.54.06-14.61,1.43-5.12,1.39-9.71-2.29-14.87-.41-5.12,1.87-10.56,11.81-15.7,13.8-5.13,1.98-10.21,1.18-15.35,3.16-5.13,1.98-10.26,2.86-15.39,4.73-1.66.6-3.3,1.43-4.95,2.34v30.38c.6-.25,1.21-.5,1.82-.77Z"/>
      <path class="cls-3" d="M10.16,401.73c5.03-3.12,9.25-9.59,14.35-12.32,5.1-2.74,10.22-5.25,15.3-7.98,5.14-2.76,9.41-8.94,14.45-12.06,5.03-3.12,10.66-4.41,15.72-7.35,5.07-2.94,10.32-4.62,15.37-7.56,5.07-2.95,9.36-8.84,14.38-11.95,5.04-3.12,11.8-1.78,16.68-5.47,4.85-3.66,8.71-8.9,13.55-12.55,4.91-3.7,9.46-8.71,14.49-11.83,5.04-3.12,10.53-5.29,15.68-7.88,5.13-2.58,10.35-8.2,15.46-10.76,5.18-2.6,10.54-.07,15.57-3.19,5.05-3.12,10.1-6.23,15.14-9.34,5.02-3.13,9.13-9.81,14.14-12.93,5.01-3.12,10.49-4.36,15.48-7.45,5.03-3.12,10.73-3.88,15.72-7.06,5.01-3.19,9.63-7.7,14.62-10.88,5.01-3.19,10.55-4.06,15.56-7.17,5.03-3.12,8.11-11.67,13.02-15.17,4.9-3.51,11.43-4.02,16.31-7.52,1.24-.89,2.44-1.85,3.62-2.85.2-.16.17-.17.23-.24l.13-.19c.09-.12.18-.24.28-.37l1.81-1.43c2.41-1.9,4.83-3.74,7.38-5.13,5.1-2.77,10.16-1.92,15.3-4.28,5.13-2.36,10.35-6.5,15.47-8.85,5.18-2.38,10.84-2.78,15.94-5.56,5.1-2.78,8.94-11.62,13.98-14.59,5.06-2.99,9.95-6.56,14.99-9.54,5.07-2.99,10.86-3.96,15.93-6.73,5.1-2.78,10.95-1.2,16.02-4.04,5.09-2.85,9.55-9,14.62-11.83,5.09-2.85,10.15-5.85,15.23-8.61,5.1-2.78,10.28-6.65,15.39-9.13,5.13-2.49,10.28-1.72,15.38-4.21,5.16-2.5,10.48-5.15,15.57-7.92,5.12-2.79,10.28-5.4,15.37-8.21,5.09-2.81,9.78-7.92,14.83-10.7,5.09-2.81,10.08-6.28,15.14-9.04,5.12-2.79,9.98-7.02,15.07-9.82,5.09-2.8,11.14.44,16.19-2.35,5.09-2.81,9.66-8.7,14.72-11.46,5.13-2.8,9.73-9.09,14.82-11.86,5.09-2.76,10.54-2.92,15.6-5.67,5.1-2.77,10.04-6.41,15.1-9.16,5.12-2.79,9.55-6.04,14.56-9.29,5.01-3.24,11.11-4.23,16.08-7.46,5.05-3.28,10.19-4.6,15.27-7.37,3.56-1.94,7.06-3.67,10.55-5.43h-56.8c-.4.23-.81.46-1.2.7-5.01,3.08-8.24,10.97-13.28,14.07-5.06,3.12-11.19,2.26-16.32,5.01-5.07,2.72-9.93,6.99-15.02,9.71-5.09,2.72-9.76,8.69-14.87,11.43-5.11,2.74-10.4,4.1-15.53,6.85-5.09,2.74-10.53.37-15.67,2.89-5.12,2.49-10.24,4.99-15.38,7.49-5.13,2.52-10.29,7.51-15.41,10.26-5.09,2.73-9.77,7.29-14.82,10.45-5,3.14-9.71,7.13-14.73,10.28-5.06,3.17-10.85,3.66-15.99,6.41-5.1,2.74-9.74,3.57-14.94,5.74-5.14,2.14-10.78,7.86-15.93,10.01-5.19,2.17-10.66.55-15.79,3.3-5.09,2.73-9.33,9.77-14.37,12.94-5.01,3.14-10.09,6.17-15.11,9.35-5.06,3.19-10.02,8.64-15.15,11.41-5.09,2.74-10.57,2.7-15.67,5.5-5.08,2.79-10.81,1.82-15.91,4.62-5.09,2.8-9.92,6.8-15.03,9.55-5.09,2.74-9.83,5.92-14.99,8.24-2.56,1.15-5.19,3.28-7.82,5.41-1.32,1.07-2.63,2.13-3.94,3.08l-.25.18-.4.25-.79.5c-.52.33-1.05.71-1.54,1.03-.64.44-1.27.83-1.91,1.17-5.15,2.7-10.57,2.09-15.64,5.21-5.02,3.09-9.88,6.91-14.92,9.97-5.03,3.05-9.37,9.3-14.42,12.36-5.04,3.06-11.35.61-16.39,3.71-5.04,3.1-11.14,6.36-16.06,10.01-4.86,3.61-8.71,8.91-13.59,12.53-4.91,3.65-8.7,10.02-13.76,13.13-5.01,3.09-11.2,1.3-16.22,4.38-5.03,3.08-9.12,10.14-14.16,13.23-5.04,3.09-9.52,8.49-14.57,11.6-5.04,3.1-10.72-1.33-15.91,1.19-5.13,2.49-10.63,11.61-15.77,14.11-5.19,2.52-10.78.14-15.84,3.25-5.03,3.09-10.58,5.32-15.58,8.56-4.99,3.24-8.98,9.47-13.97,12.72-5,3.25-9.02,10.36-14.06,13.47-5.03,3.1-11.88.6-16.84,4.01-4.94,3.37-9.92,6.76-14.87,10.14-4.97,3.42-8.57,10.45-13.62,13.57-5.03,3.1-9.83,6.41-14.81,9.73-2.1,1.4-4.12,3-6.13,4.63v28.51c3.34-2.14,6.6-3.89,10.16-6.11Z"/>
      <g>
        <path class="cls-3" d="M987.91,777.11l.65.39c.04.09.38.07.64.07h.79c1.02.04,1.92.08,2.61.17,1.38.17,1.91.51,1,1.15-1.84,1.28-4.43,2.71-6.93,4.13-2.5,1.42-4.9,2.83-6.6,4.08-3.42,2.52-6.43,4.92-9.57,7.37-1.58,1.23-4.05,2.68-6.28,4.09-2.25,1.41-4.25,2.77-5.35,3.88-1.13,1.11-4.09,2.82-6.71,4.49-2.67,1.67-5,3.3-5.95,4.39l-.09.1s.03.14.05.21l.15.45c.11.29.23.58.36.86.26.56.57,1.09.9,1.6.67,1.03,1.45,1.97,2.21,2.91,1.52,1.88,2.96,3.71,3.34,6.19.37,2.49,1.42,4.72,2.41,6.92.13.26.23.59.38.79l.75-.21c.5-.14.96-.28,1.56-.42,1.13-.27,2.17-.5,2.96-.6,1.6-.21,2.16.16,2.48.71.34.54.44,1.26,1.66,1.34,1.24.08,3.23-.29,5.4-.8,2.16-.5,4.5-1.13,6.12-1.31,1.64-.18,1.32.89.63,2.23-.67,1.33-1.7,2.93-.82,3.28.89.35,3.22-.24,5.68-.93,2.44-.68,5-1.46,5.9-1.13,1.84-.56,4.48-1.64,7.33-2.91,1.42-.63,2.92-1.32,4.44-2.03v-61.14c-3.7,1.55-7.21,3.11-9.97,4.57-4.71,2.49-3.86,4.04-2.12,5.09Z"/>
        <path class="cls-3" d="M973.91,598.16c-4.94,3.4-8.19,11.02-13.13,14.41-4.95,3.41-10.22,6.82-15.2,10.07-4.99,3.26-10.65,4.41-15.65,7.59-5.01,3.19-10.5,4.47-15.5,7.65-2.5,1.59-4.92,3.51-7.33,5.43-1.21.96-2.41,1.92-3.62,2.85l-.46.35c-.15.11-.27.21-.6.43l-1.64,1.14c-1.09.75-2.18,1.49-3.28,2.2-4.37,2.86-9.7,5.17-15.54,7.9-5.78,2.69-12.08,5.79-16.7,9.06-1.14.81-2.24,1.62-3.29,2.42.42,1.42.85,2.82,1.3,4.2.9,2.76,1.85,5.42,2.79,7.99,1.87,5.15,3.65,9.85,4.92,14.81.65,2.52,1.56,4.76,2.58,6.7,1.01,1.95,2.12,3.6,3.18,5.09l1.54,2.16.36.53.18.26.09.13.23-.13,1.81-1.04c2.37-1.34,4.53-2.43,6.52-3.15,3.96-1.44,8.27-3.22,12.45-4.91,2.1-.85,4.17-1.67,6.2-2.43.51-.19,1.01-.37,1.52-.56l1-.35c.66-.22,1.3-.43,1.94-.61,5.09-1.43,10.26-3.19,15.33-4.62,5.13-1.44,9.42.05,14.57-1.82,5.15-1.87,10.38-5.5,15.51-7.38,5.13-1.88,10.04.27,15.16-1.6,5.12-1.87,10.43-7.12,15.54-8.97,4.53-1.65,8.82-3.02,13.3-4.87v-30.38c-3.44,1.9-6.88,4.16-10.36,5.6-5.13,2.13-10.36,2.05-15.51,4.18-5.15,2.13-10.34,5.22-15.49,7.1-5.12,1.87-10.27,2.97-15.38,4.39-5.07,1.41-10.93,6.27-16.01,7.69-1.03.29-2.02.29-2.99.13,4.25-3.31,8.15-8.48,12.47-11.31,4.99-3.26,8.93-8.83,13.87-12.27,4.93-3.44,10.67-4.97,15.61-8.42,4.94-3.45,9.41-8.88,14.41-12.15,4.98-3.26,9.94-6.44,14.92-9.73,1.45-.96,2.94-1.79,4.45-2.57v-26.51c-3.76.9-7.51,1.08-11.1,3.42-4.99,3.25-10.06,6.52-14.99,9.91Z"/>
        <path class="cls-3" d="M857.91,488.4c5.01-3.12,11.28-1.25,16.28-4.34,5.03-3.11,9.5-11.18,14.61-13.87,5.1-2.68,10.44.64,15.53-2.03,5.16-2.71,10.79-5.78,15.83-8.9,5.03-3.12,9.75-6.62,14.81-9.54,5.07-2.92,10.41-3.87,15.47-6.79,5.08-2.93,9.16-11.49,14.18-14.6,5.04-3.13,9.3-6.58,14.19-10.26,4.85-3.66,12.15-3.64,16.99-7.3,1.43-1.08,2.82-2.03,4.2-2.91v-28.51c-2.75,2.24-5.49,4.53-8.36,6.45-4.98,3.32-10.83,4.43-15.88,7.53-5.03,3.1-9.93,7.06-14.99,10.06-5.05,2.99-9.8,7.71-14.86,10.7-5.06,2.99-11.55-.63-16.59,2.47-5.02,3.09-9.72,7.65-14.74,10.78-5.03,3.12-9.94,6.68-14.97,9.81-5.03,3.13-9.47,8.64-14.51,11.75-5.04,3.11-10.3,4.05-15.49,6.61-5.13,2.53-10.39,7.78-15.53,10.31-5.19,2.55-10.75,1.68-15.8,4.8-1.26.78-2.38,1.87-3.42,3.13-.26.32-.52.64-.77.98l-.19.25c-.07.09-.23.23-.34.35l-.72.73c-.95.98-1.85,1.96-2.72,2.92-3.51,3.87-6.28,7.36-10.02,9.99-3.72,2.61-8.49,4.88-13.68,7.4-2.58,1.25-5.23,2.55-7.73,3.88-.3.17-.65.32-.9.51l.14.94c.1.62.21,1.25.33,1.87.25,1.24.55,2.47.91,3.67,1.47,4.84,3.46,9.36,5.26,13.39,1.8,4.08,3.4,7.68,4.36,11.89.48,2.1.84,4.35,1.15,6.76,1.74-.38,3.56-.89,5.38-1.3,3.64-.87,7.53-1.8,11.7-3.29,2.07-.74,4.2-1.58,6.32-2.47l3.19-1.35,1.5-.65.98-.45c2.61-1.2,5.22-2.4,7.78-3.26,5.14-1.73,10.19-4.97,15.34-6.99,5.14-2.01,10.16,1.66,15.3-.4,5.14-2.06,10.3-6.11,15.45-8.18,5.14-2.06,10.41-8.68,15.56-10.69,5.14-2.01,10.29-1.89,15.43-3.77,5.13-1.88,9.99-.33,15.13-2.21,5.14-1.88,10.34-2.9,15.48-4.91,5.14-2.01,10.14-2.61,15.28-4.56,5.14-1.94,10.44-6.79,15.58-8.73,4.89-1.85,9.77-2.55,14.67-4.35v-33.72c-4.27,1.04-8.78.63-12.88,2.61-5.17,2.49-9.8,11.26-14.95,13.27-5.13,2.01-10.67,4.07-15.78,5.7-5.1,1.63-9.13-3.19-14.22-1.57-5.14,1.64-10.95,10.82-16.09,12.84-5.14,2.01-10.02-1.91-15.14,0-5.13,1.91-10.33,4.78-15.45,6.69-5.13,1.91-10.3,3.97-15.42,5.98-5.14,2.01-10.45,2.44-15.58,4.69-4,1.75-8,3.66-11.99,5.49,1.72-2.11,3.48-4.05,5.42-5.26Z"/>
      </g>
      <path class="cls-3" d="M287.98,287"/>
    </g>
  </g>
</svg>